# xmcd
#
# Track frame offsets:
#	150
#	26207
#	43480
#	65535
#	85867
#	107342
#
# Disc length: 1687 seconds
#
# Revision: 0
# Processed by: cddbd v1.4PL0 Copyright (c) Steve Scherf et al.
# Submitted via: EasyCDDAExtractor 4.5.0.2
#
DISCID=4c069506
DTITLE=Baby Face - The Day - Bonus Disk
DYEAR=1900
DGENRE=Blues
TTITLE0=Whip Appeal
TTITLE1=When Can I See You
TTITLE2=Never Keeping Secrets
TTITLE3=Can't Stop My Heart
TTITLE4=Rock Bottom
TTITLE5=Tender Lover
EXTD=
EXTT0=
EXTT1=
EXTT2=
EXTT3=
EXTT4=
EXTT5=
PLAYORDER=
